# xmcd
#
# Track frame offsets: 
#        150
#        14830
#        29494
#        48178
#        64962
#        80294
#        99053
#        114040
#        141859
#        164894
#        182184
#        193173
#        205768
#        217379
#        230240
#        247416
#        273462
#        285976
#        304111
#        317795
#
# Disc length: 4477 seconds
#
# Revision: 1
# Processed by: cddbd v1.5.2PL0 Copyright (c) Steve Scherf et al.
# Submitted via: ExactAudioCopyFreeDBPlugin 1.0
#
DISCID=36117b14
DTITLE=Various Artist - Jazz and Swing CD 2 - Swing Manouche, 2009
DYEAR=2009
DGENRE=Jazz
TTITLE0=Django Reinhardt  - Minor Swing
TTITLE1=Biréli Lagrène  - Place de Broukère
TTITLE2=Ninine Garcia  - My Dream Of Love
TTITLE3=Thomas Dutronc, Pierre Blanchard et Ninine   - Veish A No Drom
TTITLE4=Les Doigts De L'Homme  - Zinedine Tzigane
TTITLE5=Patrick Saussois et Alma Sinti  - Preludio De Lodie
TTITLE6=Didier Lockwood  - I Got Rhythm
TTITLE7=Le Nouveau Trio Gitan  - Young At Heart
TTITLE8=Gadjologie  - Swing 85914
TTITLE9=Stéphane Grappelli  - Sweet Chorus (Live In Paris 1992)
TTITLE10=Steeve Laffont  - I'll See You In My Dreams
TTITLE11=Stochelo Rosenberg  - All The Things You Are
TTITLE12=Tchan Thcou Vidal  - The Cheik Of Araby
TTITLE13=The Rosenberg Trio  - My Blue Heaven
TTITLE14=Tchavolo Schmitt  - Sweet Sue, Just You
TTITLE15=Les Frères Ferret et Les Frères Belmondo  - Brothers To Broth
TTITLE15=ers
TTITLE16=Django Reinhardt et Stéphane Grappelli  - Echoes Of France (L
TTITLE16=a Marseillaise)
TTITLE17=Moreno  - Tchan Tchou
TTITLE18=Florin Niculescu  - Opportunity
TTITLE19=Sylvain Luc et Biréli Lagrène  - Isn't She Lovely
EXTD=YEAR: 2009
EXTT0=
EXTT1=
EXTT2=
EXTT3=
EXTT4=
EXTT5=
EXTT6=
EXTT7=
EXTT8=
EXTT9=
EXTT10=
EXTT11=
EXTT12=
EXTT13=
EXTT14=
EXTT15=
EXTT16=
EXTT17=
EXTT18=
EXTT19=
PLAYORDER=
